# xmcd
#
# Track frame offsets: 
#        150
#        15430
#        31835
#        53170
#        65150
#        93337
#        112030
#        133462
#        155547
#        170507
#
# Disc length: 2448 seconds
#
# Revision: 2
# Processed by: cddbd v1.5.2PL0 Copyright (c) Steve Scherf et al.
# Submitted via: ExactAudioCopy v0.99pb5
#
DISCID=86098e0a
DTITLE=Sharkboy - Matinee
DYEAR=1994
DGENRE=Indie
TTITLE0=Sacramento Child
TTITLE1=My Star
TTITLE2=Forest Fire
TTITLE3=Razor
TTITLE4=Don't Walk Run
TTITLE5=Crystaline
TTITLE6=Road
TTITLE7=Yo Yo
TTITLE8=Sugar
TTITLE9=Carrying Some
EXTD=
EXTT0=
EXTT1=
EXTT2=
EXTT3=
EXTT4=
EXTT5=
EXTT6=
EXTT7=
EXTT8=
EXTT9=
PLAYORDER=
